<svg xmlns="http://www.w3.org/2000/svg" width="88" height="23" viewBox="0 0 88 23"><g fill="#777"><path d="M88 3.3C88 1.5 86.5 0 84.7 0s-3.2 1.5-3.2 3.3 1.5 3.3 3.2 3.3c1.8 0 3.3-1.5 3.3-3.3zm-3.3 2.4c-1.3 0-2.2-1.1-2.2-2.4s1-2.4 2.2-2.4c1.3 0 2.3 1 2.3 2.4 0 1.3-1 2.4-2.3 2.4z"/><path d="M85.6 3.6c.2-.1.5-.3.5-.8 0-.6-.4-1-1.1-1h-1.5v3.1h1V3.8h.3l.4 1.1h1.1l-.6-1.1-.1-.2zm-.8-.5h-.2v-.7h.3c.2 0 .3.1.3.4-.1.2-.2.3-.4.3z"/><circle cx="16.1" cy="3.4" r="2.5"/><path d="M18.6 7.4H7.2v-.7c0-1.4 1.5-1.5 2.2-1.5.9 0 1.3.1 1.3.1v-4s-.8-.1-1.8-.1c-2.4 0-6.8.6-6.8 5.6v.6H0v3.7h2.1V19h-2v3.7h9.4V19H7.2v-7.8h6.2V19h-1.9v3.7h9V19h-1.9V7.4zm19.4 0h-8.2v3.7h1.4l-1.8 5.5c-.3.9-.4 2-.4 2h-.1s-.1-1.1-.4-2l-1.8-5.5h1.4V7.4H20v3.7h1.7L26 22.7h6L36.3 11H38V7.4zm15.1 7.1c0-4.2-2.6-7.4-7.2-7.4-4.9 0-8 3.5-8 7.9 0 4 3 8 8.4 8 4.1 0 6.6-2.1 6.6-2.1L51 17.4s-2.1 1.4-4.3 1.4c-1.6 0-3.2-.9-3.6-2.8H53c0 .1.1-1 .1-1.5zm-9.7-1.2c.3-1.2 1-2.2 2.5-2.2 1.1 0 1.9 1 1.9 2.2h-4.4zM75 10.9c-.1 0 0-.3 0-.8v-.8c0-1.4-.8-2-2.2-2H68V11h1.4c.4 0 .7.2.7.7V19H68v3.7h9.3V19h-2.1v-2.2c0-2.8 1.4-4.6 4.2-4.6.6 0 1 .1 1 .1v-5s-.3-.1-.6-.1c-2.2 0-4.1 1.7-4.8 3.7zm-13.7 0c-.1 0 0-.3 0-.8v-.8c0-1.4-.8-2-2.2-2h-4.9V11h1.4c.4 0 .7.2.7.7V19h-2.1v3.7h9.3V19h-2.1v-2.2c0-2.8 1.4-4.6 4.2-4.6.6 0 1 .1 1 .1v-5s-.3-.1-.6-.1c-2.1 0-4 1.7-4.7 3.7z"/></g></svg>